<?xml version="1.0" standalone="no"?>
<!DOCTYPE svg PUBLIC "-//W3C//DTD SVG 20010904//EN"
 "http://www.w3.org/TR/2001/REC-SVG-20010904/DTD/svg10.dtd">
<svg version="1.0" xmlns="http://www.w3.org/2000/svg"
 width="74.000000pt" height="74.000000pt" viewBox="0 0 74.000000 74.000000"
 preserveAspectRatio="xMidYMid meet">

<g transform="translate(0.000000,74.000000) scale(0.100000,-0.100000)"
fill="#000000" stroke="none">
<path d="M378 496 c-11 -8 -15 -20 -12 -33 3 -11 1 -23 -4 -27 -11 -7 -4 -54
10 -62 6 -4 23 8 39 26 29 31 29 31 117 28 84 -3 87 -2 90 20 3 16 -2 22 -15
22 -14 0 -15 -2 -4 -9 7 -5 10 -14 6 -20 -5 -8 -31 -10 -89 -5 l-83 6 -26 -33
c-23 -29 -27 -31 -27 -13 0 29 20 84 31 84 4 0 6 7 3 15 -7 18 -14 18 -36 1z"/>
<path d="M307 446 c-3 -7 -2 -17 3 -22 15 -16 23 -84 10 -84 -7 0 -9 8 -5 21
5 15 4 19 -4 15 -12 -8 -15 -39 -5 -49 4 -3 15 -2 26 4 14 8 18 19 16 50 -1
21 -6 39 -10 39 -13 0 -9 28 5 33 6 3 2 6 -9 6 -12 1 -24 -5 -27 -13z"/>
<path d="M110 425 c-14 -17 -5 -35 18 -34 15 1 15 2 -1 6 -28 7 -14 27 24 34
l34 6 -31 2 c-17 0 -37 -6 -44 -14z"/>
<path d="M223 423 c15 -2 37 -2 50 0 12 2 0 4 -28 4 -27 0 -38 -2 -22 -4z"/>
<path d="M193 321 c-5 -21 -8 -22 -18 -8 -9 13 -11 9 -11 -18 0 -27 3 -32 13
-23 7 6 13 7 14 2 1 -5 5 7 9 26 9 39 3 58 -7 21z"/>
<path d="M525 312 c-6 -24 -10 -30 -16 -20 -7 10 -9 9 -9 -4 0 -10 7 -18 15
-18 16 0 30 41 22 62 -3 7 -8 -2 -12 -20z"/>
<path d="M444 318 c-4 -7 -3 -8 4 -4 8 5 12 -2 12 -18 0 -16 6 -26 15 -26 10
0 14 9 12 30 -2 31 -28 42 -43 18z"/>
<path d="M415 310 c-3 -5 -15 -10 -26 -10 -11 0 -19 -7 -19 -17 0 -10 4 -14 8
-8 12 17 35 17 29 0 -4 -8 -2 -15 4 -15 6 0 9 8 7 18 -1 9 1 23 5 30 5 6 6 12
3 12 -3 0 -8 -4 -11 -10z"/>
<path d="M346 301 c-3 -4 -17 -6 -31 -3 -17 3 -25 0 -25 -9 0 -11 -2 -11 -9 0
-8 12 -12 12 -24 2 -12 -9 -16 -9 -20 1 -4 8 -6 7 -6 -4 -1 -10 6 -18 14 -18
8 0 15 -7 15 -16 0 -14 2 -13 17 2 16 15 17 15 24 -2 7 -18 8 -17 8 2 1 27 11
36 26 24 9 -8 14 -5 18 10 5 21 2 26 -7 11z"/>
<path d="M553 295 c-3 -9 -3 -18 -1 -21 3 -3 8 4 11 16 6 23 -1 27 -10 5z"/>
<path d="M211 284 c0 -11 3 -14 6 -6 3 7 2 16 -1 19 -3 4 -6 -2 -5 -13z"/>
</g>
</svg>
